<svg width="19" height="19" viewBox="0 0 19 19" fill="none" xmlns="http://www.w3.org/2000/svg">
<path fill-rule="evenodd" clip-rule="evenodd" d="M6.92706 6.33335C6.92706 4.91237 8.079 3.76044 9.49998 3.76044C10.921 3.76044 12.0729 4.91237 12.0729 6.33335C12.0729 7.75434 10.921 8.90627 9.49998 8.90627C8.079 8.90627 6.92706 7.75434 6.92706 6.33335ZM9.49998 2.57294C7.42316 2.57294 5.73956 4.25653 5.73956 6.33335C5.73956 7.56068 6.32754 8.65068 7.23717 9.33703C4.96858 10.2377 3.36456 12.4524 3.36456 15.0417V15.8334C3.36456 16.1613 3.63039 16.4271 3.95831 16.4271C4.28623 16.4271 4.55206 16.1613 4.55206 15.8334V15.0417C4.55206 12.309 6.76732 10.0938 9.49998 10.0938C12.2326 10.0938 14.4479 12.309 14.4479 15.0417V15.8334C14.4479 16.1613 14.7137 16.4271 15.0416 16.4271C15.3696 16.4271 15.6354 16.1613 15.6354 15.8334V15.0417C15.6354 12.4523 14.0314 10.2377 11.7628 9.33703C12.6724 8.65068 13.2604 7.56068 13.2604 6.33335C13.2604 4.25653 11.5768 2.57294 9.49998 2.57294Z" fill="#65676D"/>
</svg>
