<svg width="64" height="64" viewBox="0 0 64 64" fill="none" xmlns="http://www.w3.org/2000/svg">
<circle cx="32.1672" cy="31.7412" r="31.7412" fill="#65676D"/>
<path fill-rule="evenodd" clip-rule="evenodd" d="M20.1655 18.2365C19.7505 17.8215 19.0776 17.8215 18.6625 18.2365C18.2475 18.6515 18.2475 19.3244 18.6625 19.7395L22.5163 23.5933H20.2642C19.2077 23.5933 18.3513 24.4498 18.3513 25.5063V37.976C18.3513 39.0325 19.2077 39.889 20.2642 39.889H35.568C36.447 39.889 37.1875 39.2961 37.4115 38.4885L44.1688 45.2458C44.5839 45.6608 45.2568 45.6608 45.6718 45.2458C46.0868 44.8307 46.0868 44.1578 45.6718 43.7428L37.1702 35.2412C37.1699 35.2409 37.1695 35.2405 37.1692 35.2402L20.1655 18.2365ZM35.3554 36.4324L24.6145 25.6914C24.5371 25.7093 24.4564 25.7188 24.3736 25.7188H20.4768V37.7635H35.3554V36.4324ZM31.4587 23.5933C30.8717 23.5933 30.3959 24.0691 30.3959 24.6561C30.3959 25.243 30.8717 25.7188 31.4587 25.7188H35.3554V29.9259C35.3554 31.5478 37.2471 32.4338 38.4931 31.3955L43.8575 26.9251V36.7007C43.8575 37.2876 44.3334 37.7635 44.9203 37.7635C45.5073 37.7635 45.9831 37.2876 45.9831 36.7007V26.4713C45.9831 24.8494 44.0914 23.9634 42.8454 25.0017L37.481 29.4721V25.5063C37.481 24.4498 36.6245 23.5933 35.568 23.5933H31.4587Z" fill="white"/>
</svg>
