<svg width="64" height="64" viewBox="0 0 64 64" fill="none" xmlns="http://www.w3.org/2000/svg">
<circle cx="31.7412" cy="31.7412" r="31.7412" fill="#E56F8C"/>
<path fill-rule="evenodd" clip-rule="evenodd" d="M20.3141 25.9824V38.0276H35.1934V25.9824H20.3141ZM18.1884 25.7698C18.1884 24.7133 19.0449 23.8568 20.1015 23.8568H35.406C36.4625 23.8568 37.3191 24.7133 37.3191 25.7698V29.7358L42.6838 25.2652C43.9298 24.2269 45.8216 25.1129 45.8216 26.7349V37.2751C45.8216 38.8971 43.9298 39.7831 42.6838 38.7447L37.3191 34.2741V38.2402C37.3191 39.2967 36.4625 40.1532 35.406 40.1532H20.1015C19.0449 40.1532 18.1884 39.2967 18.1884 38.2402V25.7698ZM37.9164 32.005L43.6959 36.8213V27.1887L37.9164 32.005Z" fill="white"/>
</svg>
