<svg width="22" height="22" viewBox="0 0 22 22" fill="none" xmlns="http://www.w3.org/2000/svg">
<path fill-rule="evenodd" clip-rule="evenodd" d="M5.70809 5.70811C5.97657 5.43962 6.41187 5.43963 6.68036 5.70811L11 10.0277L15.3196 5.70811C15.5881 5.43963 16.0234 5.43962 16.2919 5.70811C16.5604 5.9766 16.5604 6.4119 16.2919 6.68038L11.9722 11L16.2919 15.3196C16.5604 15.5881 16.5604 16.0234 16.2919 16.2919C16.0234 16.5604 15.5881 16.5604 15.3196 16.2919L11 11.9723L6.68036 16.2919C6.41187 16.5604 5.97657 16.5604 5.70809 16.2919C5.4396 16.0234 5.4396 15.5881 5.70809 15.3196L10.0277 11L5.70809 6.68038C5.4396 6.4119 5.4396 5.9766 5.70809 5.70811Z" fill="#65676D"/>
</svg>
