<svg width="25" height="25" viewBox="0 0 25 25" fill="none" xmlns="http://www.w3.org/2000/svg">
<path fill-rule="evenodd" clip-rule="evenodd" d="M7.29167 1.30209C6.86019 1.30209 6.51042 1.65187 6.51042 2.08334C6.51042 2.51482 6.86019 2.86459 7.29167 2.86459H16.8639L21.0938 7.09445V19.7917C21.0938 20.2232 21.4435 20.5729 21.875 20.5729C22.3065 20.5729 22.6562 20.2232 22.6562 19.7917V6.77084C22.6562 6.56364 22.5739 6.36493 22.4274 6.21842L17.7399 1.53092C17.5934 1.3844 17.3947 1.30209 17.1875 1.30209H7.29167ZM3.90625 6.77084C3.90625 6.33937 4.25603 5.98959 4.6875 5.98959H13.8021V8.75001C13.8021 9.52666 14.4317 10.1563 15.2083 10.1563H17.9687V21.3542C17.9687 21.7857 17.619 22.1354 17.1875 22.1354H4.6875C4.25603 22.1354 3.90625 21.7857 3.90625 21.3542V6.77084ZM19.5302 9.05745C19.5309 9.07594 19.5312 9.09448 19.5312 9.11306V21.3542C19.5312 22.6486 18.4819 23.6979 17.1875 23.6979H4.6875C3.39308 23.6979 2.34375 22.6486 2.34375 21.3542V6.77084C2.34375 5.47643 3.39308 4.42709 4.6875 4.42709H14.8453C14.8639 4.42709 14.8824 4.42746 14.9009 4.42819C14.9177 4.42746 14.9346 4.42709 14.9516 4.42709C15.2565 4.42709 15.5489 4.5482 15.7645 4.76378L15.8392 4.8385C15.8393 4.83866 15.8395 4.83882 15.8397 4.83897L19.1194 8.11869C19.1194 8.11873 19.1194 8.11876 19.1195 8.11879L19.1946 8.19388C19.4101 8.40946 19.5312 8.70185 19.5312 9.00673C19.5312 9.02372 19.5309 9.04063 19.5302 9.05745Z" fill="#65676D" fill-opacity="0.8"/>
</svg>
