<svg width="111" height="41" viewBox="0 0 111 41" fill="none" xmlns="http://www.w3.org/2000/svg">
<rect width="111" height="41" rx="8" fill="#10AB5A"/>
<path d="M53.1875 13.3438H51.7031V17.2031H48.6406V14.2656H47.1719V16.6406H43.6719V14.2656H42.1875V21.3594H48.6406V18.4062H51.7031V23.6875H53.1875V13.3438ZM43.6719 20.1562V17.7812H47.1719V20.1562H43.6719ZM44.0469 27.0312H53.5V25.8281H45.5469V22.6719H44.0469V27.0312ZM67.0156 22.3125H57.5312V23.4844H65.5312V27.3281H67.0156V22.3125ZM55.5469 17.4844C55.5391 19.4766 57.1094 20.8828 59.2188 20.875C60.4062 20.8828 61.4219 20.4219 62.0781 19.6562H65.5312V21.5781H67.0156V13.3281H65.5312V15.3281H62.0781C61.4297 14.5625 60.4062 14.1016 59.2188 14.1094C57.1094 14.1016 55.5391 15.5078 55.5469 17.4844ZM56.9688 17.4844C56.9609 16.2344 57.9062 15.3672 59.2188 15.3594C60.4766 15.3672 61.4375 16.2344 61.4375 17.4844C61.4375 18.7656 60.4766 19.6172 59.2188 19.625C57.9062 19.6172 56.9609 18.7656 56.9688 17.4844ZM62.7266 18.4375C62.8125 18.1406 62.8594 17.8203 62.8594 17.4844C62.8594 17.1562 62.8125 16.8438 62.7344 16.5469H65.5312V18.4375H62.7266ZM80.0781 13.3281H78.6094V27.3281H80.0781V20.2344H82.3281V19H80.0781V13.3281ZM69.0938 16.7344H77.3906V15.5156H74.0312V13.5156H72.5469V15.5156H69.0938V16.7344ZM69.8125 21.0156C69.8125 22.9375 71.2812 24.2734 73.2969 24.2812C75.3047 24.2734 76.7734 22.9375 76.7812 21.0156C76.7734 19.1094 75.3047 17.7656 73.2969 17.7656C71.2812 17.7656 69.8125 19.1094 69.8125 21.0156ZM71.2344 21.0156C71.2266 19.8203 72.1016 18.9922 73.2969 18.9844C74.4844 18.9922 75.3516 19.8203 75.3594 21.0156C75.3516 22.2344 74.4844 23.0469 73.2969 23.0312C72.1016 23.0469 71.2266 22.2344 71.2344 21.0156ZM94.6406 13.3281H93.1406V27.3281H94.6406V13.3281ZM83.1406 23.5781L83.9219 24.7812C88.7266 22.4766 90.4688 18.9297 90.4688 14.8281H83.8125V16.0156H88.9688C88.6797 19.2812 86.8594 21.8047 83.1406 23.5781Z" fill="white"/>
<path fill-rule="evenodd" clip-rule="evenodd" d="M14.2917 20C14.2917 15.7428 17.7428 12.2917 22 12.2917C26.2572 12.2917 29.7083 15.7428 29.7083 20C29.7083 24.2572 26.2572 27.7084 22 27.7084C17.7428 27.7084 14.2917 24.2572 14.2917 20ZM22 11.0417C17.0524 11.0417 13.0417 15.0525 13.0417 20C13.0417 24.9476 17.0524 28.9584 22 28.9584C26.9475 28.9584 30.9583 24.9476 30.9583 20C30.9583 15.0525 26.9475 11.0417 22 11.0417ZM22.625 16.6667C22.625 16.3215 22.3452 16.0417 22 16.0417C21.6548 16.0417 21.375 16.3215 21.375 16.6667V19.375H18.6667C18.3215 19.375 18.0417 19.6548 18.0417 20C18.0417 20.3452 18.3215 20.625 18.6667 20.625H21.375V23.3334C21.375 23.6785 21.6548 23.9584 22 23.9584C22.3452 23.9584 22.625 23.6785 22.625 23.3334V20.625H25.3333C25.6785 20.625 25.9583 20.3452 25.9583 20C25.9583 19.6548 25.6785 19.375 25.3333 19.375H22.625V16.6667Z" fill="white"/>
</svg>
