<svg width="28" height="21" viewBox="0 0 30 21" fill="none" xmlns="http://www.w3.org/2000/svg">
<path d="M11.0417 6.125H11.3333C12.4562 6.125 13.375 7.04375 13.375 8.16667V18.375C13.375 19.4979 12.4562 20.4167 11.3333 20.4167H11.0417C9.91875 20.4167 9 19.4979 9 18.375V8.16667C9 7.04375 9.91875 6.125 11.0417 6.125V6.125ZM19.2083 0C20.3312 0 21.25 0.91875 21.25 2.04167V18.375C21.25 19.4979 20.3312 20.4167 19.2083 20.4167C18.0854 20.4167 17.1667 19.4979 17.1667 18.375V2.04167C17.1667 0.91875 18.0854 0 19.2083 0ZM27.375 11.6667C28.4979 11.6667 29.4167 12.5854 29.4167 13.7083V18.375C29.4167 19.4979 28.4979 20.4167 27.375 20.4167C26.2521 20.4167 25.3333 19.4979 25.3333 18.375V13.7083C25.3333 12.5854 26.2521 11.6667 27.375 11.6667V11.6667Z" fill="#65676D"/>
</svg>
