<svg width="25" height="25" viewBox="0 0 25 25" fill="none" xmlns="http://www.w3.org/2000/svg">
<path fill-rule="evenodd" clip-rule="evenodd" d="M4.43314 12.5C4.43314 8.0448 8.0448 4.43314 12.5 4.43314C15.4398 4.43314 18.0134 6.00578 19.4236 8.35756H16.8605C16.4992 8.35756 16.2064 8.6504 16.2064 9.01163C16.2064 9.37286 16.4992 9.6657 16.8605 9.6657H20.481C20.4907 9.66592 20.5005 9.66592 20.5103 9.6657H20.6977C21.3479 9.6657 21.875 9.13859 21.875 8.48837V4.65116C21.875 4.28993 21.5822 3.99709 21.2209 3.99709C20.8597 3.99709 20.5669 4.28993 20.5669 4.65116V7.72075C18.9337 4.97008 15.9329 3.125 12.5 3.125C7.32233 3.125 3.125 7.32233 3.125 12.5C3.125 17.6777 7.32233 21.875 12.5 21.875C17.2003 21.875 21.0917 18.4166 21.7703 13.9054C21.824 13.5482 21.578 13.2151 21.2208 13.1613C20.8636 13.1076 20.5304 13.3536 20.4767 13.7108C19.893 17.5914 16.5434 20.5669 12.5 20.5669C8.0448 20.5669 4.43314 16.9552 4.43314 12.5Z" fill="white"/>
</svg>
