<svg width="22" height="22" viewBox="0 0 22 22" fill="none" xmlns="http://www.w3.org/2000/svg">
<path d="M19.4048 12.078C19.45 11.726 19.4839 11.374 19.4839 11C19.4839 10.626 19.45 10.274 19.4048 9.922L21.7909 8.107C22.0058 7.942 22.0623 7.645 21.9266 7.403L19.6649 3.597C19.5292 3.355 19.2238 3.267 18.975 3.355L16.1592 4.455C15.5712 4.015 14.9379 3.652 14.2481 3.377L13.8183 0.462C13.7844 0.198 13.5469 0 13.2642 0H8.74078C8.45807 0 8.22059 0.198 8.18666 0.462L7.75693 3.377C7.06711 3.652 6.43383 4.026 5.84578 4.455L3.02994 3.355C2.76985 3.256 2.47582 3.355 2.34012 3.597L0.0784042 7.403C-0.0686074 7.645 -0.000755756 7.942 0.214107 8.107L2.60022 9.922C2.55498 10.274 2.52106 10.637 2.52106 11C2.52106 11.363 2.55498 11.726 2.60022 12.078L0.214107 13.893C-0.000755756 14.058 -0.0572988 14.355 0.0784042 14.597L2.34012 18.403C2.47582 18.645 2.78116 18.733 3.02994 18.645L5.84578 17.545C6.43383 17.985 7.06711 18.348 7.75693 18.623L8.18666 21.538C8.22059 21.802 8.45807 22 8.74078 22H13.2642C13.5469 22 13.7844 21.802 13.8183 21.538L14.2481 18.623C14.9379 18.348 15.5712 17.974 16.1592 17.545L18.975 18.645C19.2351 18.744 19.5292 18.645 19.6649 18.403L21.9266 14.597C22.0623 14.355 22.0058 14.058 21.7909 13.893L19.4048 12.078ZM11.0025 14.85C8.81994 14.85 7.04449 13.123 7.04449 11C7.04449 8.877 8.81994 7.15 11.0025 7.15C13.1851 7.15 14.9605 8.877 14.9605 11C14.9605 13.123 13.1851 14.85 11.0025 14.85Z" fill="#65676D"/>
</svg>
