<svg width="44" height="50" viewBox="0 0 44 50" fill="none" xmlns="http://www.w3.org/2000/svg">
<path fill-rule="evenodd" clip-rule="evenodd" d="M12.7917 13.6667C12.7917 8.58105 16.9144 4.45833 22 4.45833C27.0856 4.45833 31.2083 8.58105 31.2083 13.6667C31.2083 18.7523 27.0856 22.875 22 22.875C16.9144 22.875 12.7917 18.7523 12.7917 13.6667ZM22 0.208334C14.5672 0.208334 8.54167 6.23383 8.54167 13.6667C8.54167 18.0592 10.646 21.9602 13.9015 24.4167C5.78236 27.6399 0.0416718 35.5662 0.0416718 44.8333V47.6667C0.0416718 48.8403 0.993067 49.7917 2.16667 49.7917C3.34028 49.7917 4.29167 48.8403 4.29167 47.6667V44.8333C4.29167 35.0533 12.22 27.125 22 27.125C31.78 27.125 39.7083 35.0533 39.7083 44.8333V47.6667C39.7083 48.8403 40.6597 49.7917 41.8333 49.7917C43.0069 49.7917 43.9583 48.8403 43.9583 47.6667V44.8333C43.9583 35.5662 38.2177 27.6399 30.0985 24.4167C33.354 21.9602 35.4583 18.0592 35.4583 13.6667C35.4583 6.23383 29.4328 0.208334 22 0.208334Z" fill="#D2D2D2"/>
</svg>
