<svg width="19" height="19" viewBox="0 0 19 19" fill="none" xmlns="http://www.w3.org/2000/svg">
<path fill-rule="evenodd" clip-rule="evenodd" d="M5.30415 5.26458L7.02602 2.96875H11.9739L13.6958 5.26458C14.107 5.81279 14.7522 6.13542 15.4375 6.13542H15.8333C16.3798 6.13542 16.8229 6.57847 16.8229 7.125V15.0417C16.8229 15.5882 16.3798 16.0312 15.8333 16.0312H3.16665C2.62011 16.0312 2.17706 15.5882 2.17706 15.0417V7.125C2.17706 6.57847 2.62011 6.13542 3.16665 6.13542H3.56248C4.24773 6.13542 4.89299 5.81279 5.30415 5.26458ZM6.96665 1.78125C6.63025 1.78125 6.31348 1.93963 6.11165 2.20875L4.35415 4.55208C4.16726 4.80127 3.87396 4.94792 3.56248 4.94792H3.16665C1.96428 4.94792 0.989563 5.92263 0.989563 7.125V15.0417C0.989563 16.244 1.96428 17.2188 3.16665 17.2188H15.8333C17.0357 17.2188 18.0104 16.244 18.0104 15.0417V7.125C18.0104 5.92263 17.0357 4.94792 15.8333 4.94792H15.4375C15.126 4.94792 14.8327 4.80127 14.6458 4.55208L12.8883 2.20875C12.6865 1.93963 12.3697 1.78125 12.0333 1.78125H6.96665ZM6.92706 10.2917C6.92706 8.87068 8.079 7.71875 9.49998 7.71875C10.921 7.71875 12.0729 8.87068 12.0729 10.2917C12.0729 11.7126 10.921 12.8646 9.49998 12.8646C8.079 12.8646 6.92706 11.7126 6.92706 10.2917ZM9.49998 6.53125C7.42316 6.53125 5.73956 8.21485 5.73956 10.2917C5.73956 12.3685 7.42316 14.0521 9.49998 14.0521C11.5768 14.0521 13.2604 12.3685 13.2604 10.2917C13.2604 8.21485 11.5768 6.53125 9.49998 6.53125Z" fill="#65676D"/>
</svg>
